<svg xmlns="http://www.w3.org/2000/svg" xmlns:xlink="http://www.w3.org/1999/xlink" viewBox="0 0 100 100" id="apple-safari"><path fill="#fff" d="M63.6 5c9 0 13.5 0 18.4 1.5 5.3 1.9 9.5 6.1 11.4 11.4C95 22.8 95 27.4 95 36.4v27.2c0 9 0 13.5-1.5 18.4-1.9 5.3-6.1 9.5-11.4 11.4-5 1.6-9.5 1.6-18.5 1.6H36.4c-9 0-13.5 0-18.4-1.5-5.4-2-9.5-6.1-11.5-11.5C5 77.2 5 72.7 5 63.6V36.4c0-9 0-13.5 1.5-18.4 2-5.3 6.1-9.5 11.5-11.4C22.8 5 27.3 5 36.4 5h27.2z"></path><linearGradient id="a" x1="-546.385" x2="-546.385" y1="-424.135" y2="-422.635" gradientTransform="matrix(52 0 0 52 28462 22066)" gradientUnits="userSpaceOnUse"><stop offset="0" stop-color="#23D9FD"></stop><stop offset="1" stop-color="#1F63F0"></stop></linearGradient><circle cx="50" cy="50" r="39" fill="url(#a)"></circle><path fill="#fff" d="M49.2 14h.8v6.7h-.7l-.1-6.7zm6.3.5l.7.1-1.2 6.6-.7-.1 1.2-6.6zm6.1 1.6l.7.3-2.3 6.3-.7-.3 2.3-6.3zm5.7 2.6l.6.4-3.4 5.8-.6-.4 3.4-5.8zm5.2 3.5l.6.5-4.3 5.2-.6-.5 4.3-5.2zm4.4 4.4l.5.6-5.2 4.3-.5-.6 5.2-4.3zm3.7 5.1l.4.6-5.8 3.4-.4-.6 5.8-3.4zm2.7 5.7l.3.7-6.3 2.3-.3-.7 6.3-2.3zm1.7 6l.1.7-6.6 1.2-.1-.7 6.6-1.2zm.6 6.2v.7h-6.7v-.7h6.7zm-.5 6.3l-.1.7-6.6-1.2.1-.7 6.6 1.2zM83.6 62l-.3.7-6.3-2.3.3-.7 6.3 2.3zM81 67.7l-.4.6-5.9-3.3.4-.6 5.9 3.3zm-3.6 5.2l-.5.6-5.2-4.3.5-.6 5.2 4.3zM73 77.3l-.6.5-4.3-5.2.6-.5 4.3 5.2zM67.9 81l-.6.4-3.4-5.8.6-.4 3.4 5.8zm-5.6 2.7l-.7.3-2.3-6.3.7-.3 2.3 6.3zm-6.1 1.7l-.7.1-1.2-6.6.7-.1 1.2 6.6zM50 86h-.7v-6.7h.7V86zm-6.3-.5l-.7-.1 1.2-6.6.7.1-1.2 6.6zm-6-1.5l-.7-.3 2.3-6.3.7.3-2.3 6.3zm-5.8-2.6l-.6-.4 3.4-5.8.6.4-3.4 5.8zm-5.1-3.6l-.6-.5 4.3-5.2.6.5-4.3 5.2zm-4.5-4.4l-.5-.6 5.2-4.3.5.6-5.2 4.3zm-3.7-5.1l-.4-.6 5.8-3.4.4.6-5.8 3.4zm-2.7-5.6l-.2-.7 6.3-2.3.3.7-6.4 2.3zm-1.7-6.1l-.1-.7 6.6-1.2.1.7-6.6 1.2zm-.6-6.2v-.7h6.7v.7h-6.7zm.5-6.3l.1-.7 6.6 1.2-.1.7-6.6-1.2zm1.6-6l.3-.7 6.3 2.3-.3.7-6.3-2.3zm2.6-5.8l.4-.6 5.8 3.4-.4.6-5.8-3.4zm3.5-5.1l.5-.6 5.2 4.3-.5.6-5.2-4.3zm4.4-4.5l.6-.5 4.3 5.2-.6.5-4.3-5.2zm5.1-3.7l.6-.4 3.4 5.8-.6.4-3.4-5.8zm5.6-2.7l.7-.3 2.3 6.3-.7.3-2.3-6.3zm6.1-1.7l.7-.1 1.2 6.6-.7.1-1.2-6.6zM52.4 14.1l.7.1-.3 3.7H52l.4-3.8zm6.2 1.1l.7.2-1 3.6-.7-.2 1-3.6zm5.9 2l.7.3-1.6 3.5-.7-.3 1.6-3.5zm5.4 3.1l.6.4-2.2 3.1-.6-.4 2.2-3.1zm4.9 4l.5.5-2.7 2.7-.5-.5 2.7-2.7zm4.1 4.8l.4.6-3.1 2.2-.4-.6 3.1-2.2zm3.2 5.4l.3.7-3.4 1.5-.3-.7 3.4-1.5zm2.2 5.8l.2.7-3.6 1-.2-.7 3.6-1zm1.1 6.2l.1.7-3.7.3-.1-.7 3.7-.3zm.1 6.3l-.1.7-3.7-.3.1-.7 3.7.3zm-1 6.2l-.2.7-3.6-1 .2-.7 3.6 1zm-2.1 5.9l-.3.7-3.4-1.6.3-.7 3.4 1.6zm-3.1 5.4l-.4.7-3.1-2.2.4-.6 3.1 2.1zm-4 4.9l-.5.5-2.7-2.7.5-.5 2.7 2.7zm-4.7 4.1l-.6.4-2.2-3.1.6-.4 2.2 3.1zm-5.4 3.2l-.7.3-1.6-3.4.7-.3 1.6 3.4zm-5.9 2.2l-.7.2-1-3.6.7-.2 1 3.6zm-6.2 1.1l-.7.1-.4-3.7.7-.1.4 3.7zm-6.3.1l-.7-.1.3-3.7.7.1-.3 3.7zm-6.1-1l-.7-.2 1-3.6.7.2-1 3.6zm-6-2.1l-.7-.3 1.6-3.4.7.3-1.6 3.4zm-5.4-3.1l-.6-.4 2.2-3.1.6.4-2.2 3.1zm-4.9-4l-.5-.5 2.7-2.7.5.5-2.7 2.7zM20.3 71l-.4-.6 3.1-2.2.4.6-3.1 2.2zm-3.1-5.4l-.3-.7 3.4-1.6.3.7-3.4 1.6zm-2.3-5.9l-.1-.7 3.6-1 .2.7-3.7 1zm-1.1-6.2l-.1-.7 3.7-.3.1.7-3.7.3zm-.1-6.2l.1-.7 3.7.3-.1.7-3.7-.3zm1.1-6.2l.2-.7 3.6 1-.2.6-3.6-.9zm2-6l.3-.7 3.4 1.6-.3.7-3.4-1.6zm3.1-5.4l.4-.6 3.1 2.2-.4.5-3.1-2.1zm4-4.9l.5-.5 2.7 2.7-.5.5-2.7-2.7zm4.8-4l.6-.4 2.2 3.1-.6.4-2.2-3.1zm5.4-3.2l.7-.3 1.6 3.4-.8.3-1.5-3.4zm5.8-2.2l.7-.2 1 3.6-.7.2-1-3.6zm6.2-1.2l.7-.1.3 3.7-.7.1-.3-3.7z"></path><g transform="rotate(45 11.922 59.988)"><path fill="#fff" d="M37 26H26.5l5 38.9L37 26H26.5"></path><path fill="#ff1414" d="m26.5 26 4.9-39L37 26z"></path><defs><path id="b" d="M37.3-24.3v1l-1-1z"></path></defs><defs><path id="d" d="M39.3-26.3v-1l1 1z"></path></defs><clipPath id="c"><use overflow="visible" xlink:href="#b"></use></clipPath><clipPath id="e" clip-path="url(#c)"><use overflow="visible" xlink:href="#d"></use></clipPath><path fill="#ff1414" d="M12.3.5h39v12h-39z" clip-path="url(#e)" transform="rotate(90 31.812 6.544)"></path></g></svg>